<svg width="96" height="170" viewBox="0 0 96 170" fill="none" xmlns="http://www.w3.org/2000/svg">
<path fill-rule="evenodd" clip-rule="evenodd" d="M0.772675 136.943L75.0951 136.943L91.465 107.916L17.5581 107.917L0.772675 136.943Z" fill="#0F2F56"/>
<path opacity="0.764602" fill-rule="evenodd" clip-rule="evenodd" d="M66.2968 107.88L51.6067 107.913L34.8922 136.764C36.2488 135.76 66.2968 107.88 66.2968 107.88Z" fill="url(#paint0_linear_273_2533)"/>
<path fill-rule="evenodd" clip-rule="evenodd" d="M0.761139 136.942H35.3641L78.8132 60.9566L60.3014 34.2012L0.761139 136.942Z" fill="#0F2F56"/>
<path fill-rule="evenodd" clip-rule="evenodd" d="M95.3356 32.015L61.2525 32.015L14.7323 45.6512L4.64489 61.0423L78.7547 61.0423L95.3356 32.015Z" fill="#0F2F56"/>
<path opacity="0.764602" fill-rule="evenodd" clip-rule="evenodd" d="M29.8111 61.0787L44.5012 61.0448L61.2157 32.1946C59.8591 33.1979 29.8111 61.0787 29.8111 61.0787Z" fill="url(#paint1_linear_273_2533)"/>
<defs>
<linearGradient id="paint0_linear_273_2533" x1="37.9797" y1="30.1536" x2="-56.8043" y2="131.93" gradientUnits="userSpaceOnUse">
<stop stop-color="#0F2F56"/>
<stop offset="1" stop-color="#1D2029"/>
</linearGradient>
<linearGradient id="paint1_linear_273_2533" x1="58.1281" y1="138.805" x2="152.912" y2="37.028" gradientUnits="userSpaceOnUse">
<stop stop-color="#0F2F56"/>
<stop offset="1" stop-color="#1D2029"/>
</linearGradient>
</defs>
</svg>
